<?xml version="1.0" encoding="UTF-8" standalone="no"?>
<!DOCTYPE svg PUBLIC "-//W3C//DTD SVG 1.1//EN"
 "http://www.w3.org/Graphics/SVG/1.1/DTD/svg11.dtd">
<!-- Generated by graphviz version 2.50.0 (20211209.0339)
 -->
<!-- Title: snakemake_dag Pages: 1 -->
<svg width="904pt" height="404pt"
 viewBox="0.00 0.00 904.34 404.00" xmlns="http://www.w3.org/2000/svg" xmlns:xlink="http://www.w3.org/1999/xlink">
<g id="graph0" class="graph" transform="scale(1 1) rotate(0) translate(4 400)">
<title>snakemake_dag</title>
<polygon fill="white" stroke="transparent" points="-4,4 -4,-400 900.34,-400 900.34,4 -4,4"/>
<!-- 0 -->
<g id="node1" class="node">
<title>0</title>
<path fill="none" stroke="#ced856" stroke-width="2" d="M466.34,-36C466.34,-36 436.34,-36 436.34,-36 430.34,-36 424.34,-30 424.34,-24 424.34,-24 424.34,-12 424.34,-12 424.34,-6 430.34,0 436.34,0 436.34,0 466.34,0 466.34,0 472.34,0 478.34,-6 478.34,-12 478.34,-12 478.34,-24 478.34,-24 478.34,-30 472.34,-36 466.34,-36"/>
<text text-anchor="middle" x="451.34" y="-15.5" font-family="sans" font-size="10.00">all</text>
</g>
<!-- 1 -->
<g id="node2" class="node">
<title>1</title>
<path fill="none" stroke="#569ad8" stroke-width="2" d="M162.34,-396C162.34,-396 132.34,-396 132.34,-396 126.34,-396 120.34,-390 120.34,-384 120.34,-384 120.34,-372 120.34,-372 120.34,-366 126.34,-360 132.34,-360 132.34,-360 162.34,-360 162.34,-360 168.34,-360 174.34,-366 174.34,-372 174.34,-372 174.34,-384 174.34,-384 174.34,-390 168.34,-396 162.34,-396"/>
<text text-anchor="middle" x="147.34" y="-375.5" font-family="sans" font-size="10.00">fastp</text>
</g>
<!-- 1&#45;&gt;0 -->
<g id="edge13" class="edge">
<title>1&#45;&gt;0</title>
<path fill="none" stroke="grey" stroke-width="2" d="M120.02,-364.57C79.28,-343.94 7.34,-298.53 7.34,-235 7.34,-235 7.34,-235 7.34,-161 7.34,-142.44 -41.91,-141.88 116.34,-72 217.16,-27.48 349.64,-19.73 413.58,-18.78"/>
<polygon fill="grey" stroke="grey" stroke-width="2" points="414.01,-22.27 423.97,-18.68 413.94,-15.28 414.01,-22.27"/>
</g>
<!-- 2 -->
<g id="node3" class="node">
<title>2</title>
<path fill="none" stroke="#56c1d8" stroke-width="2" d="M77.34,-180C77.34,-180 47.34,-180 47.34,-180 41.34,-180 35.34,-174 35.34,-168 35.34,-168 35.34,-156 35.34,-156 35.34,-150 41.34,-144 47.34,-144 47.34,-144 77.34,-144 77.34,-144 83.34,-144 89.34,-150 89.34,-156 89.34,-156 89.34,-168 89.34,-168 89.34,-174 83.34,-180 77.34,-180"/>
<text text-anchor="middle" x="62.34" y="-159.5" font-family="sans" font-size="10.00">fastqc</text>
</g>
<!-- 1&#45;&gt;2 -->
<g id="edge14" class="edge">
<title>1&#45;&gt;2</title>
<path fill="none" stroke="grey" stroke-width="2" d="M140.53,-359.85C125.73,-322.6 90.57,-234.07 72.88,-189.54"/>
<polygon fill="grey" stroke="grey" stroke-width="2" points="76.13,-188.23 69.19,-180.23 69.63,-190.82 76.13,-188.23"/>
</g>
<!-- 3 -->
<g id="node4" class="node">
<title>3</title>
<path fill="none" stroke="#56d8d0" stroke-width="2" d="M174.84,-180C174.84,-180 119.84,-180 119.84,-180 113.84,-180 107.84,-174 107.84,-168 107.84,-168 107.84,-156 107.84,-156 107.84,-150 113.84,-144 119.84,-144 119.84,-144 174.84,-144 174.84,-144 180.84,-144 186.84,-150 186.84,-156 186.84,-156 186.84,-168 186.84,-168 186.84,-174 180.84,-180 174.84,-180"/>
<text text-anchor="middle" x="147.34" y="-159.5" font-family="sans" font-size="10.00">fastq_screen</text>
</g>
<!-- 1&#45;&gt;3 -->
<g id="edge15" class="edge">
<title>1&#45;&gt;3</title>
<path fill="none" stroke="grey" stroke-width="2" d="M147.34,-359.85C147.34,-322.83 147.34,-235.18 147.34,-190.39"/>
<polygon fill="grey" stroke="grey" stroke-width="2" points="150.84,-190.23 147.34,-180.23 143.84,-190.23 150.84,-190.23"/>
</g>
<!-- 5 -->
<g id="node6" class="node">
<title>5</title>
<path fill="none" stroke="#d8bc56" stroke-width="2" d="M436.34,-324C436.34,-324 406.34,-324 406.34,-324 400.34,-324 394.34,-318 394.34,-312 394.34,-312 394.34,-300 394.34,-300 394.34,-294 400.34,-288 406.34,-288 406.34,-288 436.34,-288 436.34,-288 442.34,-288 448.34,-294 448.34,-300 448.34,-300 448.34,-312 448.34,-312 448.34,-318 442.34,-324 436.34,-324"/>
<text text-anchor="middle" x="421.34" y="-303.5" font-family="sans" font-size="10.00">STAR</text>
</g>
<!-- 1&#45;&gt;5 -->
<g id="edge18" class="edge">
<title>1&#45;&gt;5</title>
<path fill="none" stroke="grey" stroke-width="2" d="M174.62,-370.03C224.06,-357.4 328.53,-330.71 384.35,-316.45"/>
<polygon fill="grey" stroke="grey" stroke-width="2" points="385.36,-319.81 394.18,-313.94 383.62,-313.02 385.36,-319.81"/>
</g>
<!-- 8 -->
<g id="node9" class="node">
<title>8</title>
<path fill="none" stroke="#d85656" stroke-width="2" d="M268.34,-108C268.34,-108 238.34,-108 238.34,-108 232.34,-108 226.34,-102 226.34,-96 226.34,-96 226.34,-84 226.34,-84 226.34,-78 232.34,-72 238.34,-72 238.34,-72 268.34,-72 268.34,-72 274.34,-72 280.34,-78 280.34,-84 280.34,-84 280.34,-96 280.34,-96 280.34,-102 274.34,-108 268.34,-108"/>
<text text-anchor="middle" x="253.34" y="-87.5" font-family="sans" font-size="10.00">multiqc</text>
</g>
<!-- 1&#45;&gt;8 -->
<g id="edge27" class="edge">
<title>1&#45;&gt;8</title>
<path fill="none" stroke="grey" stroke-width="2" d="M153.66,-359.97C171.4,-312.09 221.82,-176.06 243.37,-117.9"/>
<polygon fill="grey" stroke="grey" stroke-width="2" points="246.74,-118.9 246.93,-108.31 240.17,-116.47 246.74,-118.9"/>
</g>
<!-- 2&#45;&gt;0 -->
<g id="edge12" class="edge">
<title>2&#45;&gt;0</title>
<path fill="none" stroke="grey" stroke-width="2" d="M78.77,-143.96C99.52,-123.51 137.26,-89.77 176.34,-72 256.02,-35.78 359.61,-24.29 414.09,-20.66"/>
<polygon fill="grey" stroke="grey" stroke-width="2" points="414.54,-24.14 424.31,-20.04 414.11,-17.16 414.54,-24.14"/>
</g>
<!-- 2&#45;&gt;8 -->
<g id="edge26" class="edge">
<title>2&#45;&gt;8</title>
<path fill="none" stroke="grey" stroke-width="2" d="M89.72,-147.69C92.61,-146.4 95.53,-145.14 98.34,-144 138.06,-127.89 184.72,-112.38 216.4,-102.35"/>
<polygon fill="grey" stroke="grey" stroke-width="2" points="217.64,-105.63 226.13,-99.29 215.54,-98.95 217.64,-105.63"/>
</g>
<!-- 3&#45;&gt;0 -->
<g id="edge11" class="edge">
<title>3&#45;&gt;0</title>
<path fill="none" stroke="grey" stroke-width="2" d="M156.17,-143.66C167.49,-123.24 189.09,-89.85 217.34,-72 278.85,-33.13 365.37,-22.63 414.13,-19.88"/>
<polygon fill="grey" stroke="grey" stroke-width="2" points="414.41,-23.37 424.23,-19.39 414.07,-16.38 414.41,-23.37"/>
</g>
<!-- 3&#45;&gt;8 -->
<g id="edge25" class="edge">
<title>3&#45;&gt;8</title>
<path fill="none" stroke="grey" stroke-width="2" d="M173.27,-143.88C187.01,-134.81 204.05,-123.55 218.88,-113.76"/>
<polygon fill="grey" stroke="grey" stroke-width="2" points="220.9,-116.62 227.31,-108.19 217.04,-110.78 220.9,-116.62"/>
</g>
<!-- 4 -->
<g id="node5" class="node">
<title>4</title>
<path fill="none" stroke="#56d8a9" stroke-width="2" d="M475.34,-180C475.34,-180 445.34,-180 445.34,-180 439.34,-180 433.34,-174 433.34,-168 433.34,-168 433.34,-156 433.34,-156 433.34,-150 439.34,-144 445.34,-144 445.34,-144 475.34,-144 475.34,-144 481.34,-144 487.34,-150 487.34,-156 487.34,-156 487.34,-168 487.34,-168 487.34,-174 481.34,-180 475.34,-180"/>
<text text-anchor="middle" x="460.34" y="-159.5" font-family="sans" font-size="10.00">preseq</text>
</g>
<!-- 4&#45;&gt;0 -->
<g id="edge10" class="edge">
<title>4&#45;&gt;0</title>
<path fill="none" stroke="grey" stroke-width="2" d="M459.26,-143.87C457.72,-119.67 454.91,-75.21 453.08,-46.39"/>
<polygon fill="grey" stroke="grey" stroke-width="2" points="456.56,-45.95 452.43,-36.19 449.57,-46.39 456.56,-45.95"/>
</g>
<!-- 4&#45;&gt;8 -->
<g id="edge24" class="edge">
<title>4&#45;&gt;8</title>
<path fill="none" stroke="grey" stroke-width="2" d="M433.28,-151.85C396.63,-139.46 331.09,-117.29 290.04,-103.41"/>
<polygon fill="grey" stroke="grey" stroke-width="2" points="291.01,-100.04 280.41,-100.15 288.76,-106.67 291.01,-100.04"/>
</g>
<!-- 5&#45;&gt;0 -->
<g id="edge4" class="edge">
<title>5&#45;&gt;0</title>
<path fill="none" stroke="grey" stroke-width="2" d="M418.1,-287.89C416.3,-277.54 414.25,-264.06 413.34,-252 407.69,-176.67 429.87,-89.04 442.74,-45.87"/>
<polygon fill="grey" stroke="grey" stroke-width="2" points="446.14,-46.71 445.71,-36.12 439.45,-44.67 446.14,-46.71"/>
</g>
<!-- 5&#45;&gt;4 -->
<g id="edge16" class="edge">
<title>5&#45;&gt;4</title>
<path fill="none" stroke="grey" stroke-width="2" d="M448.44,-290.39C462.23,-281.34 477.67,-268.32 485.34,-252 494.82,-231.84 486.67,-207.38 477.22,-189.2"/>
<polygon fill="grey" stroke="grey" stroke-width="2" points="480.19,-187.34 472.25,-180.33 474.09,-190.76 480.19,-187.34"/>
</g>
<!-- 6 -->
<g id="node7" class="node">
<title>6</title>
<path fill="none" stroke="#567bd8" stroke-width="2" d="M464.34,-252C464.34,-252 434.34,-252 434.34,-252 428.34,-252 422.34,-246 422.34,-240 422.34,-240 422.34,-228 422.34,-228 422.34,-222 428.34,-216 434.34,-216 434.34,-216 464.34,-216 464.34,-216 470.34,-216 476.34,-222 476.34,-228 476.34,-228 476.34,-240 476.34,-240 476.34,-246 470.34,-252 464.34,-252"/>
<text text-anchor="middle" x="449.34" y="-231.5" font-family="sans" font-size="10.00">index</text>
</g>
<!-- 5&#45;&gt;6 -->
<g id="edge19" class="edge">
<title>5&#45;&gt;6</title>
<path fill="none" stroke="grey" stroke-width="2" d="M428.26,-287.7C431.42,-279.81 435.22,-270.3 438.72,-261.55"/>
<polygon fill="grey" stroke="grey" stroke-width="2" points="442.04,-262.69 442.5,-252.1 435.54,-260.09 442.04,-262.69"/>
</g>
<!-- 7 -->
<g id="node8" class="node">
<title>7</title>
<path fill="none" stroke="#d87556" stroke-width="2" d="M364.84,-180C364.84,-180 293.84,-180 293.84,-180 287.84,-180 281.84,-174 281.84,-168 281.84,-168 281.84,-156 281.84,-156 281.84,-150 287.84,-144 293.84,-144 293.84,-144 364.84,-144 364.84,-144 370.84,-144 376.84,-150 376.84,-156 376.84,-156 376.84,-168 376.84,-168 376.84,-174 370.84,-180 364.84,-180"/>
<text text-anchor="middle" x="329.34" y="-159.5" font-family="sans" font-size="10.00">preseq_lcextrap</text>
</g>
<!-- 5&#45;&gt;7 -->
<g id="edge20" class="edge">
<title>5&#45;&gt;7</title>
<path fill="none" stroke="grey" stroke-width="2" d="M407.05,-287.78C398.87,-277.63 388.62,-264.38 380.34,-252 366.73,-231.64 353.02,-207.47 343.25,-189.46"/>
<polygon fill="grey" stroke="grey" stroke-width="2" points="346.07,-187.3 338.26,-180.15 339.9,-190.62 346.07,-187.3"/>
</g>
<!-- 5&#45;&gt;8 -->
<g id="edge23" class="edge">
<title>5&#45;&gt;8</title>
<path fill="none" stroke="grey" stroke-width="2" d="M394.13,-290.17C359.88,-269.99 301.97,-230.54 272.34,-180 261.32,-161.2 256.66,-136.82 254.71,-118.34"/>
<polygon fill="grey" stroke="grey" stroke-width="2" points="258.18,-117.88 253.84,-108.22 251.21,-118.48 258.18,-117.88"/>
</g>
<!-- 9 -->
<g id="node10" class="node">
<title>9</title>
<path fill="none" stroke="#56d86b" stroke-width="2" d="M547.34,-180C547.34,-180 517.34,-180 517.34,-180 511.34,-180 505.34,-174 505.34,-168 505.34,-168 505.34,-156 505.34,-156 505.34,-150 511.34,-144 517.34,-144 517.34,-144 547.34,-144 547.34,-144 553.34,-144 559.34,-150 559.34,-156 559.34,-156 559.34,-168 559.34,-168 559.34,-174 553.34,-180 547.34,-180"/>
<text text-anchor="middle" x="532.34" y="-159.5" font-family="sans" font-size="10.00">bigwig</text>
</g>
<!-- 5&#45;&gt;9 -->
<g id="edge28" class="edge">
<title>5&#45;&gt;9</title>
<path fill="none" stroke="grey" stroke-width="2" d="M448.45,-293.1C466.05,-284.11 488.26,-270.21 502.34,-252 516.25,-234.02 523.91,-209.23 528,-190.37"/>
<polygon fill="grey" stroke="grey" stroke-width="2" points="531.48,-190.81 529.97,-180.33 524.61,-189.47 531.48,-190.81"/>
</g>
<!-- 10 -->
<g id="node11" class="node">
<title>10</title>
<path fill="none" stroke="#68d856" stroke-width="2" d="M651.84,-252C651.84,-252 582.84,-252 582.84,-252 576.84,-252 570.84,-246 570.84,-240 570.84,-240 570.84,-228 570.84,-228 570.84,-222 576.84,-216 582.84,-216 582.84,-216 651.84,-216 651.84,-216 657.84,-216 663.84,-222 663.84,-228 663.84,-228 663.84,-240 663.84,-240 663.84,-246 657.84,-252 651.84,-252"/>
<text text-anchor="middle" x="617.34" y="-231.5" font-family="sans" font-size="10.00">compile_counts</text>
</g>
<!-- 5&#45;&gt;10 -->
<g id="edge30" class="edge">
<title>5&#45;&gt;10</title>
<path fill="none" stroke="grey" stroke-width="2" d="M448.6,-295.27C477.56,-284.92 524.19,-268.27 561.1,-255.09"/>
<polygon fill="grey" stroke="grey" stroke-width="2" points="562.5,-258.3 570.74,-251.64 560.14,-251.71 562.5,-258.3"/>
</g>
<!-- 6&#45;&gt;4 -->
<g id="edge17" class="edge">
<title>6&#45;&gt;4</title>
<path fill="none" stroke="grey" stroke-width="2" d="M452.06,-215.7C453.27,-207.98 454.73,-198.71 456.08,-190.11"/>
<polygon fill="grey" stroke="grey" stroke-width="2" points="459.56,-190.53 457.66,-180.1 452.65,-189.44 459.56,-190.53"/>
</g>
<!-- 6&#45;&gt;7 -->
<g id="edge21" class="edge">
<title>6&#45;&gt;7</title>
<path fill="none" stroke="grey" stroke-width="2" d="M422.11,-217.12C405.98,-207.7 385.28,-195.63 367.53,-185.28"/>
<polygon fill="grey" stroke="grey" stroke-width="2" points="368.96,-182.06 358.56,-180.04 365.44,-188.11 368.96,-182.06"/>
</g>
<!-- 6&#45;&gt;9 -->
<g id="edge29" class="edge">
<title>6&#45;&gt;9</title>
<path fill="none" stroke="grey" stroke-width="2" d="M469.86,-215.7C480.21,-206.97 492.93,-196.24 504.18,-186.75"/>
<polygon fill="grey" stroke="grey" stroke-width="2" points="506.67,-189.23 512.06,-180.1 502.16,-183.88 506.67,-189.23"/>
</g>
<!-- 7&#45;&gt;0 -->
<g id="edge2" class="edge">
<title>7&#45;&gt;0</title>
<path fill="none" stroke="grey" stroke-width="2" d="M339.65,-143.71C351.13,-125.1 370.8,-95.06 391.34,-72 400.54,-61.68 411.64,-51.39 421.78,-42.65"/>
<polygon fill="grey" stroke="grey" stroke-width="2" points="424.27,-45.13 429.65,-36.01 419.75,-39.78 424.27,-45.13"/>
</g>
<!-- 7&#45;&gt;8 -->
<g id="edge22" class="edge">
<title>7&#45;&gt;8</title>
<path fill="none" stroke="grey" stroke-width="2" d="M310.56,-143.7C301.17,-135.05 289.66,-124.45 279.43,-115.03"/>
<polygon fill="grey" stroke="grey" stroke-width="2" points="281.64,-112.3 271.91,-108.1 276.9,-117.45 281.64,-112.3"/>
</g>
<!-- 8&#45;&gt;0 -->
<g id="edge1" class="edge">
<title>8&#45;&gt;0</title>
<path fill="none" stroke="grey" stroke-width="2" d="M280.46,-79.41C315.17,-67.14 375.45,-45.83 414.36,-32.08"/>
<polygon fill="grey" stroke="grey" stroke-width="2" points="415.98,-35.22 424.24,-28.58 413.64,-28.62 415.98,-35.22"/>
</g>
<!-- 9&#45;&gt;0 -->
<g id="edge8" class="edge">
<title>9&#45;&gt;0</title>
<path fill="none" stroke="grey" stroke-width="2" d="M522.57,-143.87C508.52,-119.24 482.51,-73.64 466.11,-44.88"/>
<polygon fill="grey" stroke="grey" stroke-width="2" points="469.14,-43.14 461.15,-36.19 463.06,-46.61 469.14,-43.14"/>
</g>
<!-- 10&#45;&gt;0 -->
<g id="edge7" class="edge">
<title>10&#45;&gt;0</title>
<path fill="none" stroke="grey" stroke-width="2" d="M609.3,-215.98C600.31,-197.6 584.85,-167.76 568.34,-144 544.25,-109.32 535.36,-102.68 506.34,-72 497.16,-62.29 486.69,-52.01 477.36,-43.12"/>
<polygon fill="grey" stroke="grey" stroke-width="2" points="479.51,-40.34 469.84,-36.01 474.71,-45.43 479.51,-40.34"/>
</g>
<!-- 11 -->
<g id="node12" class="node">
<title>11</title>
<path fill="none" stroke="#afd856" stroke-width="2" d="M680.84,-180C680.84,-180 627.84,-180 627.84,-180 621.84,-180 615.84,-174 615.84,-168 615.84,-168 615.84,-156 615.84,-156 615.84,-150 621.84,-144 627.84,-144 627.84,-144 680.84,-144 680.84,-144 686.84,-144 692.84,-150 692.84,-156 692.84,-156 692.84,-168 692.84,-168 692.84,-174 686.84,-180 680.84,-180"/>
<text text-anchor="middle" x="654.34" y="-159.5" font-family="sans" font-size="10.00">filter_counts</text>
</g>
<!-- 10&#45;&gt;11 -->
<g id="edge31" class="edge">
<title>10&#45;&gt;11</title>
<path fill="none" stroke="grey" stroke-width="2" d="M626.49,-215.7C630.75,-207.64 635.9,-197.89 640.61,-188.98"/>
<polygon fill="grey" stroke="grey" stroke-width="2" points="643.72,-190.58 645.3,-180.1 637.54,-187.31 643.72,-190.58"/>
</g>
<!-- 11&#45;&gt;0 -->
<g id="edge5" class="edge">
<title>11&#45;&gt;0</title>
<path fill="none" stroke="grey" stroke-width="2" d="M631.11,-143.86C617.38,-133.61 599.73,-120.25 584.34,-108 564.85,-92.47 561.71,-86.37 541.34,-72 524.22,-59.91 504.21,-47.94 487.41,-38.43"/>
<polygon fill="grey" stroke="grey" stroke-width="2" points="488.89,-35.25 478.45,-33.42 485.47,-41.36 488.89,-35.25"/>
</g>
<!-- 12 -->
<g id="node13" class="node">
<title>12</title>
<path fill="none" stroke="#56d88a" stroke-width="2" d="M664.84,-108C664.84,-108 605.84,-108 605.84,-108 599.84,-108 593.84,-102 593.84,-96 593.84,-96 593.84,-84 593.84,-84 593.84,-78 599.84,-72 605.84,-72 605.84,-72 664.84,-72 664.84,-72 670.84,-72 676.84,-78 676.84,-84 676.84,-84 676.84,-96 676.84,-96 676.84,-102 670.84,-108 664.84,-108"/>
<text text-anchor="middle" x="635.34" y="-87.5" font-family="sans" font-size="10.00">deseq2_norm</text>
</g>
<!-- 11&#45;&gt;12 -->
<g id="edge32" class="edge">
<title>11&#45;&gt;12</title>
<path fill="none" stroke="grey" stroke-width="2" d="M649.65,-143.7C647.53,-135.9 644.98,-126.51 642.63,-117.83"/>
<polygon fill="grey" stroke="grey" stroke-width="2" points="645.98,-116.84 639.99,-108.1 639.23,-118.67 645.98,-116.84"/>
</g>
<!-- 13 -->
<g id="node14" class="node">
<title>13</title>
<path fill="none" stroke="#d89c56" stroke-width="2" d="M767.84,-108C767.84,-108 706.84,-108 706.84,-108 700.84,-108 694.84,-102 694.84,-96 694.84,-96 694.84,-84 694.84,-84 694.84,-78 700.84,-72 706.84,-72 706.84,-72 767.84,-72 767.84,-72 773.84,-72 779.84,-78 779.84,-84 779.84,-84 779.84,-96 779.84,-96 779.84,-102 773.84,-108 767.84,-108"/>
<text text-anchor="middle" x="737.34" y="-87.5" font-family="sans" font-size="10.00">deseq2_group</text>
</g>
<!-- 11&#45;&gt;13 -->
<g id="edge33" class="edge">
<title>11&#45;&gt;13</title>
<path fill="none" stroke="grey" stroke-width="2" d="M674.86,-143.7C685.21,-134.97 697.93,-124.24 709.18,-114.75"/>
<polygon fill="grey" stroke="grey" stroke-width="2" points="711.67,-117.23 717.06,-108.1 707.16,-111.88 711.67,-117.23"/>
</g>
<!-- 14 -->
<g id="node15" class="node">
<title>14</title>
<path fill="none" stroke="#88d856" stroke-width="2" d="M884.34,-108C884.34,-108 810.34,-108 810.34,-108 804.34,-108 798.34,-102 798.34,-96 798.34,-96 798.34,-84 798.34,-84 798.34,-78 804.34,-72 810.34,-72 810.34,-72 884.34,-72 884.34,-72 890.34,-72 896.34,-78 896.34,-84 896.34,-84 896.34,-96 896.34,-96 896.34,-102 890.34,-108 884.34,-108"/>
<text text-anchor="middle" x="847.34" y="-87.5" font-family="sans" font-size="10.00">deseq2_pairwise</text>
</g>
<!-- 11&#45;&gt;14 -->
<g id="edge34" class="edge">
<title>11&#45;&gt;14</title>
<path fill="none" stroke="grey" stroke-width="2" d="M692.94,-147C720.95,-136.84 759.29,-122.94 790.76,-111.52"/>
<polygon fill="grey" stroke="grey" stroke-width="2" points="792.08,-114.77 800.29,-108.07 789.7,-108.19 792.08,-114.77"/>
</g>
<!-- 12&#45;&gt;0 -->
<g id="edge9" class="edge">
<title>12&#45;&gt;0</title>
<path fill="none" stroke="grey" stroke-width="2" d="M593.59,-73.12C561.73,-61 518.27,-44.46 487.8,-32.87"/>
<polygon fill="grey" stroke="grey" stroke-width="2" points="488.99,-29.58 478.4,-29.29 486.5,-36.12 488.99,-29.58"/>
</g>
<!-- 13&#45;&gt;0 -->
<g id="edge3" class="edge">
<title>13&#45;&gt;0</title>
<path fill="none" stroke="grey" stroke-width="2" d="M694.59,-74.67C691.47,-73.74 688.36,-72.83 685.34,-72 616.47,-52.99 534.84,-35.66 488.47,-26.29"/>
<polygon fill="grey" stroke="grey" stroke-width="2" points="489.06,-22.84 478.57,-24.31 487.69,-29.71 489.06,-22.84"/>
</g>
<!-- 14&#45;&gt;0 -->
<g id="edge6" class="edge">
<title>14&#45;&gt;0</title>
<path fill="none" stroke="grey" stroke-width="2" d="M798.21,-74.35C794.88,-73.51 791.57,-72.72 788.34,-72 680.67,-48.12 551.31,-30.93 488.8,-23.34"/>
<polygon fill="grey" stroke="grey" stroke-width="2" points="488.99,-19.84 478.64,-22.12 488.15,-26.79 488.99,-19.84"/>
</g>
</g>
</svg>
